<svg width="800" height="600" viewBox="0 0 800 600" fill="none" xmlns="http://www.w3.org/2000/svg">
  <rect width="800" height="600" rx="48" fill="url(#grad)" />
  <g filter="url(#shadow)">
    <rect x="120" y="140" width="240" height="360" rx="24" fill="white" />
    <rect x="160" y="200" width="160" height="24" rx="12" fill="#E2E8F0" />
    <rect x="160" y="248" width="160" height="24" rx="12" fill="#E2E8F0" />
    <rect x="160" y="296" width="160" height="24" rx="12" fill="#E2E8F0" />
    <rect x="160" y="344" width="120" height="24" rx="12" fill="#E2E8F0" />
    <rect x="160" y="424" width="80" height="24" rx="12" fill="#3B82F6" />
  </g>
  <g filter="url(#shadow)">
    <rect x="360" y="120" width="320" height="220" rx="24" fill="white" />
    <path d="M400 300L448 228L504 264L576 180L640 252" stroke="#3B82F6" stroke-width="12" stroke-linecap="round" stroke-linejoin="round" fill="none" />
    <circle cx="448" cy="228" r="12" fill="#3B82F6" />
    <circle cx="504" cy="264" r="12" fill="#3B82F6" />
    <circle cx="576" cy="180" r="12" fill="#3B82F6" />
    <circle cx="640" cy="252" r="12" fill="#3B82F6" />
    <rect x="392" y="332" width="256" height="28" rx="14" fill="#E2E8F0" />
  </g>
  <g filter="url(#shadow)">
    <rect x="400" y="360" width="280" height="140" rx="24" fill="white" />
    <rect x="432" y="408" width="80" height="72" rx="16" fill="#DBEAFE" />
    <rect x="528" y="384" width="56" height="96" rx="16" fill="#BFDBFE" />
    <rect x="600" y="420" width="56" height="60" rx="16" fill="#60A5FA" />
    <path d="M432 480H656" stroke="#CBD5F5" stroke-width="8" stroke-linecap="round" />
  </g>
  <defs>
    <linearGradient id="grad" x1="80" y1="60" x2="720" y2="540" gradientUnits="userSpaceOnUse">
      <stop stop-color="#F8FAFC" />
      <stop offset="1" stop-color="#EFF6FF" />
    </linearGradient>
    <filter id="shadow" x="0" y="0" width="800" height="600" filterUnits="userSpaceOnUse" color-interpolation-filters="sRGB">
      <feFlood flood-opacity="0" result="BackgroundImageFix" />
      <feColorMatrix in="SourceAlpha" type="matrix" values="0 0 0 0 0 0 0 0 0 0 0 0 0 0 0 0 0 0 127 0" result="hardAlpha" />
      <feOffset dy="20" />
      <feGaussianBlur stdDeviation="40" />
      <feColorMatrix type="matrix" values="0 0 0 0 0.2 0 0 0 0 0.34 0 0 0 0 0.64 0 0 0 0.12 0" />
      <feBlend mode="normal" in2="BackgroundImageFix" result="effect1_dropShadow" />
      <feBlend mode="normal" in="SourceGraphic" in2="effect1_dropShadow" result="shape" />
    </filter>
  </defs>
</svg>
